<?xml version="1.0" encoding="UTF-8"?>
<svg id="Layer_1" data-name="Layer 1" xmlns="http://www.w3.org/2000/svg" viewBox="0 0 356.2 381.51">
  <defs>
    <style>
      .cls-1 {
        stroke-linecap: round;
      }

      .cls-1, .cls-2 {
        fill: #fff;
        stroke: #fff;
        stroke-linejoin: round;
        stroke-width: 10px;
      }
    </style>
  </defs>
  <path class="cls-1" d="m254.82,54.01S201.82,4.01,109.82,5.01L5.82,325.01s-8,26,26,21l116-39v45c0,13.53,10.63,24.5,23.75,24.5s23.48-10.7,23.74-24h.01s0-59,0-59l54.5-17.5v46.53c-.06.65-.1,1.31-.1,1.97,0,10.91,8.86,19.75,19.8,19.75s19.8-8.84,19.8-19.75c0-.34-.03-.67-.05-1h.05s.5-60.5.5-60.5l61-18s8-70-49-146"/>
  <line class="cls-1" x1="277.45" y1="75.64" x2="278.32" y2="76.51"/>
  <path class="cls-2" d="m101.39,35.9s187.99,22.87,218.63,220.96"/>
  <circle class="cls-2" cx="137.82" cy="114.01" r="37.5"/>
  <circle class="cls-2" cx="129.32" cy="276.51" r="31"/>
  <path class="cls-2" d="m55.44,179.64l-22.49,70.5c19.47,6.21,40.28-4.54,46.5-24s-4.54-40.28-24-46.5Z"/>
  <path class="cls-2" d="m154.32,194.81l53.52,41.77c11.1-14.22,8.12-35.11-6.66-46.64-14.78-11.53-35.76-9.35-46.86,4.87Z"/>
  <path class="cls-2" d="m34.87,344.26l56.34-19.09c-5.24-15.47-22.11-23.74-37.66-18.46-15.56,5.27-23.92,22.09-18.68,37.56Z"/>
  <path class="cls-2" d="m299.54,186.23s-19.19-28.65-19.7-30.03-19-31.17-19-31.17c-17.45,10.64-22.97,33.4-12.33,50.85,10.64,17.45,33.59,20.98,51.03,10.34Z"/>
</svg>